HIERARCHY
ROOT hips
{
  OFFSET 0 10.6860622 2.3727825e-15
  CHANNELS 6 Xposition Yposition Zposition Yrotation Xrotation Zrotation
  JOINT leftUpperLeg
  {
    OFFSET 0.6642549969 -0.9402397400000004 0
    CHANNELS 3 Yrotation Xrotation Zrotation
    JOINT leftLowerLeg
    {
      OFFSET 0 -3.997221335632195 0
      CHANNELS 3 Yrotation Xrotation Zrotation
      JOINT leftFoot
      {
        OFFSET -0.13777839790000004 -4.6145792000000005 -0.22186036399999998
        CHANNELS 3 Yrotation Xrotation Zrotation
        JOINT leftToes
        {
          OFFSET -0.03777410834999995 -0.9130806927000008 0.85230013
          CHANNELS 3 Yrotation Xrotation Zrotation
          End Site
          {
            OFFSET -0.03777410834999995 -0.9130806927000008 0.85230013
          }
        }
      }
    }
  }
  JOINT rightUpperLeg
  {
    OFFSET -0.6642778626 -0.9402397400000004 0
    CHANNELS 3 Yrotation Xrotation Zrotation
    JOINT rightLowerLeg
    {
      OFFSET 0 -3.997221452859387 0
      CHANNELS 3 Yrotation Xrotation Zrotation
      JOINT rightFoot
      {
        OFFSET 0.1377926176 -4.6145792000000005 -0.22185782299999995
        CHANNELS 3 Yrotation Xrotation Zrotation
        JOINT rightToes
        {
          OFFSET 0.037780746850000047 -0.9130806927000008 0.85230167
          CHANNELS 3 Yrotation Xrotation Zrotation
          End Site
          {
            OFFSET 0.037780746850000047 -0.9130806927000008 0.85230167
          }
        }
      }
    }
  }
  JOINT spine
  {
    OFFSET 0 0.13988381660000015 0
    CHANNELS 3 Yrotation Xrotation Zrotation
    JOINT chest
    {
      OFFSET 0 0.6191039003973773 0
      CHANNELS 3 Yrotation Xrotation Zrotation
      JOINT upperChest
      {
        OFFSET 0 0.9855186130586943 0
        CHANNELS 3 Yrotation Xrotation Zrotation
        JOINT leftShoulder
        {
          OFFSET 0.1807663869 1.5087829790000005 0
          CHANNELS 3 Yrotation Xrotation Zrotation
          JOINT leftUpperArm
          {
            OFFSET 0.5985063006419806 0 0
            CHANNELS 3 Yrotation Xrotation Zrotation
            JOINT leftLowerArm
            {
              OFFSET 2.2993332369501065 0 0
              CHANNELS 3 Yrotation Xrotation Zrotation
              JOINT leftHand
              {
                OFFSET 2.395047042602395 0 0
                CHANNELS 3 Yrotation Xrotation Zrotation
                JOINT leftIndexProximal
                {
                  OFFSET 0.5766295810000004 0.04556643899499946 0.17265095988184
                  CHANNELS 3 Yrotation Xrotation Zrotation
                  JOINT leftIndexIntermediate
                  {
                    OFFSET 0.2957229000000008 -0.019352197700001517 -0.007932640616999987
                    CHANNELS 3 Yrotation Xrotation Zrotation
                    JOINT leftIndexDistal
                    {
                      OFFSET 0.19008243099999922 -0.012484908149998475 -0.002786250786000012
                      CHANNELS 3 Yrotation Xrotation Zrotation
                      End Site
                      {
                        OFFSET 0.19008243099999922 -0.012484908149998475 -0.002786250786000012
                      }
                    }
                  }
                }
                JOINT leftMiddleProximal
                {
                  OFFSET 0.5834975091000001 0.0524350405149987 0.02204081888183999
                  CHANNELS 3 Yrotation Xrotation Zrotation
                  JOINT leftMiddleIntermediate
                  {
                    OFFSET 0.33880573540000003 -0.019871473270000717 -0.00000971183179999946
                    CHANNELS 3 Yrotation Xrotation Zrotation
                    JOINT leftMiddleDistal
                    {
                      OFFSET 0.20676022730000088 -0.012221336379999448 0.0001471936708000235
                      CHANNELS 3 Yrotation Xrotation Zrotation
                      End Site
                      {
                        OFFSET 0.20676022730000088 -0.012221336379999448 0.0001471936708000235
                      }
                    }
                  }
                }
                JOINT leftLittleProximal
                {
                  OFFSET 0.5344154683999995 -0.012880921405001189 -0.24414037221816004
                  CHANNELS 3 Yrotation Xrotation Zrotation
                  JOINT leftLittleIntermediate
                  {
                    OFFSET 0.21758961730000093 -0.011650919939999227 0.011893592810000034
                    CHANNELS 3 Yrotation Xrotation Zrotation
                    JOINT leftLittleDistal
                    {
                      OFFSET 0.1475273964999999 -0.008152365682999818 0.006001092492999946
                      CHANNELS 3 Yrotation Xrotation Zrotation
                      End Site
                      {
                        OFFSET 0.1475273964999999 -0.008152365682999818 0.006001092492999946
                      }
                    }
                  }
                }
                JOINT leftRingProximal
                {
                  OFFSET 0.5799399463000003 0.026911854694997794 -0.12150566991816003
                  CHANNELS 3 Yrotation Xrotation Zrotation
                  JOINT leftRingIntermediate
                  {
                    OFFSET 0.26167887460000006 -0.013480186499999602 0.010996293000000053
                    CHANNELS 3 Yrotation Xrotation Zrotation
                    JOINT leftRingDistal
                    {
                      OFFSET 0.17667108799999987 -0.008990287899999228 0.0055541023999999065
                      CHANNELS 3 Yrotation Xrotation Zrotation
                      End Site
                      {
                        OFFSET 0.17667108799999987 -0.008990287899999228 0.0055541023999999065
                      }
                    }
                  }
                }
                JOINT leftThumbProximal
                {
                  OFFSET 0.11018806699999972 -0.09448718900500053 0.17047963138184
                  CHANNELS 3 Yrotation Xrotation Zrotation
                  JOINT leftThumbIntermediate
                  {
                    OFFSET 0.31062601459999983 -0.08126270900000132 0.15443142000000007
                    CHANNELS 3 Yrotation Xrotation Zrotation
                    JOINT leftThumbDistal
                    {
                      OFFSET 0.21627175790000086 -0.08833193599999878 0.018771167799999988
                      CHANNELS 3 Yrotation Xrotation Zrotation
                      End Site
                      {
                        OFFSET 0.21627175790000086 -0.08833193599999878 0.018771167799999988
                      }
                    }
                  }
                }
              }
            }
          }
        }
        JOINT neck
        {
          OFFSET 0 1.5463305265074576 0
          CHANNELS 3 Yrotation Xrotation Zrotation
          JOINT head
          {
            OFFSET 0 0.8456443600000344 0
            CHANNELS 3 Yrotation Xrotation Zrotation
            JOINT leftEye
            {
              OFFSET 0.30408573140000006 0.5104519199999995 0.1276382305
              CHANNELS 3 Yrotation Xrotation Zrotation
              End Site
              {
                OFFSET 0.30408573140000006 0.5104519199999995 0.1276382305
              }
            }
            JOINT rightEye
            {
              OFFSET -0.30409491089999996 0.5104519199999995 0.1276379445
              CHANNELS 3 Yrotation Xrotation Zrotation
              End Site
              {
                OFFSET -0.30409491089999996 0.5104519199999995 0.1276379445
              }
            }
            JOINT jaw
            {
              OFFSET -3.155239131000001e-7 -0.11984121820000082 0.60178107
              CHANNELS 3 Yrotation Xrotation Zrotation
              End Site
              {
                OFFSET -3.155239131000001e-7 -0.11984121820000082 0.60178107
              }
            }
          }
        }
        JOINT rightShoulder
        {
          OFFSET -0.1807303465 1.5087829790000005 0
          CHANNELS 3 Yrotation Xrotation Zrotation
          JOINT rightUpperArm
          {
            OFFSET -0.5985063796536958 0 0
            CHANNELS 3 Yrotation Xrotation Zrotation
            JOINT rightLowerArm
            {
              OFFSET -2.2993322059002854 0 0
              CHANNELS 3 Yrotation Xrotation Zrotation
              JOINT rightHand
              {
                OFFSET -2.395045314457259 0 0
                CHANNELS 3 Yrotation Xrotation Zrotation
                JOINT rightIndexProximal
                {
                  OFFSET -0.5764487688300002 0.0441371204405987 0.17361932004999997
                  CHANNELS 3 Yrotation Xrotation Zrotation
                  JOINT rightIndexIntermediate
                  {
                    OFFSET -0.29573011380000047 -0.01934826376999843 -0.007698921482999974
                    CHANNELS 3 Yrotation Xrotation Zrotation
                    JOINT rightIndexDistal
                    {
                      OFFSET -0.19008373999999884 -0.012503266380000655 -0.0026365778999999897
                      CHANNELS 3 Yrotation Xrotation Zrotation
                      End Site
                      {
                        OFFSET -0.19008373999999884 -0.012503266380000655 -0.0026365778999999897
                      }
                    }
                  }
                }
                JOINT rightMiddleProximal
                {
                  OFFSET -0.5834852037300005 0.05211639405060153 0.02307162440000001
                  CHANNELS 3 Yrotation Xrotation Zrotation
                  JOINT rightMiddleIntermediate
                  {
                    OFFSET -0.33880114510000003 -0.019952774050000954 0.0002455003561999819
                    CHANNELS 3 Yrotation Xrotation Zrotation
                    JOINT rightMiddleDistal
                    {
                      OFFSET -0.20675694929999955 -0.012273788999999091 0.00030209124000002766
                      CHANNELS 3 Yrotation Xrotation Zrotation
                      End Site
                      {
                        OFFSET -0.20675694929999955 -0.012273788999999091 0.00030209124000002766
                      }
                    }
                  }
                }
                JOINT rightLittleProximal
                {
                  OFFSET -0.5346811737299992 -0.011214256288399227 -0.24363941305000003
                  CHANNELS 3 Yrotation Xrotation Zrotation
                  JOINT rightLittleIntermediate
                  {
                    OFFSET -0.21757715980000092 -0.011771559690000988 0.01201554387
                    CHANNELS 3 Yrotation Xrotation Zrotation
                    JOINT rightLittleDistal
                    {
                      OFFSET -0.1475201849000004 -0.00822055339600003 0.006082065407000015
                      CHANNELS 3 Yrotation Xrotation Zrotation
                      End Site
                      {
                        OFFSET -0.1475201849000004 -0.00822055339600003 0.006082065407000015
                      }
                    }
                  }
                }
                JOINT rightRingProximal
                {
                  OFFSET -0.5800810755299999 0.027657985680600072 -0.12066365025000003
                  CHANNELS 3 Yrotation Xrotation Zrotation
                  JOINT rightRingIntermediate
                  {
                    OFFSET -0.26166445029999974 -0.013623118409999302 0.011164098990000045
                    CHANNELS 3 Yrotation Xrotation Zrotation
                    JOINT rightRingDistal
                    {
                      OFFSET -0.17666387530000027 -0.009072900100000503 0.005668185599999959
                      CHANNELS 3 Yrotation Xrotation Zrotation
                      End Site
                      {
                        OFFSET -0.17666387530000027 -0.009072900100000503 0.005668185599999959
                      }
                    }
                  }
                }
                JOINT rightThumbProximal
                {
                  OFFSET -0.10997596379000074 -0.09577489355940072 0.16989765924999997
                  CHANNELS 3 Yrotation Xrotation Zrotation
                  JOINT rightThumbIntermediate
                  {
                    OFFSET -0.31036620999999986 -0.08229339117999834 0.15440884469999996
                    CHANNELS 3 Yrotation Xrotation Zrotation
                    JOINT rightThumbDistal
                    {
                      OFFSET -0.21631306399999906 -0.08825326400000111 0.018656797720000014
                      CHANNELS 3 Yrotation Xrotation Zrotation
                      End Site
                      {
                        OFFSET -0.21631306399999906 -0.08825326400000111 0.018656797720000014
                      }
                    }
                  }
                }
              }
            }
          }
        }
      }
    }
  }
}
MOTION
Frames: 9
Frame Time: 0.03333333333333333
0 11.682712981546562 0 0 0 0 0 0 -5.826343164929014 -0.3712483961610101 -3.6333298826370974 5.838118207697276 0 0 0 0 0 0 0 0 5.826343164929014 0.3712483961610101 -3.6333298826370974 -5.838118207697276 0 0 0 0 0 0 0 -4.610651315171937 0 0 3.0831277533083026 0 0 0 0 0 1.5275236235667615 0 0 0 0 0 0 0 0 0 0 0 0 0 0 0 0 0 0 0 0 0 0 0 0 0 0 0 0 0 0 0 0 0 0 0 0 0 0 0 0 0 0 0 0 0 0 0 0 0 0 0 0 0 0 0 0 1.5275236235667615 0 0 0 0 0 0 0 0 0 0 0 0 0 0 1.5275236235667615 0 0 0 0 0 0 0 0 0 0 0 0 0 0 0 0 0 0 0 0 0 0 0 0 0 0 0 0 0 0 0 0 0 0 0 0 0 0 0 0 0 0 0 0 0 0 0 0 0 0 0 0 0 0 0
0.21041497803535195 -4.631505861947886 3.410947186674195 -0.2120303031651755 -88.98992453584597 -179.79167964635408 35.4473720620695 -6.932742903678803 46.136077536926585 -10.3429318555054 69.62167901755649 25.788742880469126 -29.805698371281323 14.379941529330328 -21.045756146632836 0 0 0 -37.12390377070809 -6.395245684769715 -44.28000885713047 6.674998328805266 72.015316996137 -29.57151215344384 27.233014489405477 12.074641097098105 18.670150084406433 0 0 0 -0.5123817196567517 -18.609577023651294 -2.208836359193524 0.6889549617908726 10.645493342564512 -0.7656025863261476 0 0 0 28.370294794466492 2.5146991634879488 19.7881931006861 47.61389719035057 32.85654580980634 2.281559448316594 1.436453077253656 30.457501417596045 1.741273762676141 -2.864019688605839 -1.4240604827989356 55.28440214282948 0 0 0 0 0 0 0 0 0 0 0 0 0 0 0 0 0 0 0 0 0 0 0 0 0 0 0 0 0 0 0 0 0 0 0 0 0 0 0 0 0 0 0 0 0 0 17.52098252285569 0 0 10.996040977772193 0 0 0 0 0 0 0 0 0 0 -31.644352201407887 1.2945108065174011 -20.33454829486336 -44.03099017943233 32.99008624489905 -2.2952124040241744 -1.0919408151736745 30.48767124971586 -1.060603168110481 2.18053297422356 -1.3081781251045772 -54.96526318084434 0 0 0 0 0 0 0 0 0 0 0 0 0 0 0 0 0 0 0 0 0 0 0 0 0 0 0 0 0 0 0 0 0 0 0 0 0 0 0 0 0 0 0 0 0
0.21041497803535195 -4.62335452027605 3.4860116738976217 -0.6367173740210219 -89.66486541379453 -179.3669925326765 36.512145401022316 -8.791948408129874 46.17938623475173 -10.683208180735306 69.29836184824407 25.272743839684466 -30.66426352245157 15.129451532781806 -19.746582482519912 0 0 0 -38.05165019659542 -8.141175772449328 -44.31123248825363 7.360867849731425 71.57382661311027 -28.720753767562893 28.10423327443405 12.942325506831503 17.57433999811782 0 0 0 -0.5154171045079603 -19.605976367808022 -2.199476873165949 0.6878648892370811 10.14593453565987 -0.7716638835295063 0 0 0 27.023494717372532 3.107513381360401 19.63139205242972 48.93082826814458 32.81094739762303 2.370341272975483 1.77036984404362 30.45033874298984 1.542259028710528 -2.5618869380037217 -1.2937243871215038 55.95832343677308 0 0 0 0 0 0 0 0 0 0 0 0 0 0 0 0 0 0 0 0 0 0 0 0 0 0 0 0 0 0 0 0 0 0 0 0 0 0 0 0 0 0 0 0 0 0 16.844363813727487 0 0 10.466024668777294 0 0 0 0 0 0 0 0 0 0 -30.05647187735769 1.9739668090958005 -20.215053820783876 -45.631419289553655 32.93352166976977 -2.390866942787658 -1.4710268782139913 30.481283055673998 -0.8735286087989115 1.9584475961712624 -1.163994459611485 -55.72226806438331 0 0 0 0 0 0 0 0 0 0 0 0 0 0 0 0 0 0 0 0 0 0 0 0 0 0 0 0 0 0 0 0 0 0 0 0 0 0 0 0 0 0 0 0 0
0.21041497803535195 -4.615203178604213 3.5610761611210475 -179.36231367494332 -89.66838707572579 -0.6413976546032755 37.587644933633854 -10.662392255666868 46.18771196415352 -11.010400258339999 68.97390949911922 24.769614702110513 -31.511819208665262 15.9009978646883 -18.448729788632132 0 0 0 -38.987506392234025 -9.895952973113788 -44.31385257312777 8.011087759407172 71.12911614966171 -27.905377276475775 28.964681739118788 13.82951464655637 16.484035930263207 0 0 0 -0.5186492548256331 -20.603577880958884 -2.1899893941550164 0.686829098381578 9.646220429623693 -0.7777085463662177 0 0 0 25.67063803826983 3.6980554083134094 19.460110936395296 50.249601533009304 32.763544818538 2.4579787274569496 2.104379966498824 30.444190672250667 1.343161094129086 -2.2580446938229106 -1.1668650135338765 56.633364585267806 0 0 0 0 0 0 0 0 0 0 0 0 0 0 0 0 0 0 0 0 0 0 0 0 0 0 0 0 0 0 0 0 0 0 0 0 0 0 0 0 0 0 0 0 0 0 16.165988506994996 0 0 9.935167729089027 0 0 0 0 0 0 0 0 0 0 -28.46050959177501 2.6523519496145647 -20.0761525925213 -47.2354776939912 32.874577851231784 -2.4848163002298485 -1.8502285031191434 30.47596516427785 -0.6863643936588835 1.7343087316201622 -1.0226471674197726 -56.480386347039435 0 0 0 0 0 0 0 0 0 0 0 0 0 0 0 0 0 0 0 0 0 0 0 0 0 0 0 0 0 0 0 0 0 0 0 0 0 0 0 0 0 0 0 0 0
0.21041497803535195 -4.607052105324648 3.636140916736745 -179.7890836269948 -89.001028097128 -0.21462831216260966 38.6756245175957 -12.542196798200465 46.15991713768257 -11.325072744836543 68.64841756480484 24.278799506430268 -32.34750514683026 16.693901307434462 -17.152724650032003 0 0 0 -39.932830288909386 -11.65808446779692 -44.28704611025634 8.627818568947808 70.68142606569998 -27.123227172307185 29.813824061803544 14.735518346629123 15.399611834631122 0 0 0 -0.522085090591254 -21.602256596043294 -2.1803679941762995 0.6858483292910353 9.146376066910442 -0.7837368696103816 0 0 0 24.311842172194428 4.285763783167037 19.274307480848442 51.569880504453934 32.71437339366189 2.544399398235034 2.438471514233096 30.43903324702489 1.1439893697017331 -1.95255309748307 -1.0435204169115835 57.30944696898305 0 0 0 0 0 0 0 0 0 0 0 0 0 0 0 0 0 0 0 0 0 0 0 0 0 0 0 0 0 0 0 0 0 0 0 0 0 0 0 0 0 0 0 0 0 0 15.485892011517192 0 0 9.403487739152022 0 0 0 0 0 0 0 0 0 0 -26.856696917330797 3.3287958295240823 -19.917745242500782 -48.84252092649266 32.813283853841185 -2.5769410482239663 -2.229530702044145 30.471717400094093 -0.4991212276759061 1.508170062040111 -0.8841832311957735 -57.23956274764521 0 0 0 0 0 0 0 0 0 0 0 0 0 0 0 0 0 0 0 0 0 0 0 0 0 0 0 0 0 0 0 0 0 0 0 0 0 0 0 0 0 0 0 0 0
0.21041497803535195 -4.602976434488729 3.673673160348458 -179.8425358098045 -88.66733890990676 -0.16117664958665348 39.225439740988335 -13.485940305767835 46.132032640359895 -11.477861989740665 68.4852867821904 24.037846453711076 -32.76095804389155 17.09845806049795 -16.505080292991906 0 0 0 -40.4098857433149 -12.54220029678408 -44.262308007490276 8.924298503896091 70.45651570679722 -26.743936409531706 30.23426468395163 15.195654338924848 14.859344565870323 0 0 0 -0.5238817077645541 -22.102048539714776 -2.1755031457647043 0.6853779458471978 8.896394428778523 -0.7867449487800842 0 0 0 23.62995467767568 4.578516595612517 19.175922621897016 52.23070287673639 32.68913033566641 2.5871435587187013 2.6055515774110867 30.436826966398574 1.0443749379744216 -1.7991909527313759 -0.9831700961800367 57.6479062252578 0 0 0 0 0 0 0 0 0 0 0 0 0 0 0 0 0 0 0 0 0 0 0 0 0 0 0 0 0 0 0 0 0 0 0 0 0 0 0 0 0 0 0 0 0 0 15.145003906773832 0 0 9.137247684742059 0 0 0 0 0 0 0 0 0 0 -26.051416155401643 3.666231895717771 -19.831155454831684 -49.64738555633994 32.78175702998375 -2.622304513737393 -2.4192251395106044 30.469989817667475 -0.4054701571629605 1.3943526649821238 -0.8160376525398241 -57.6195650728962 0 0 0 0 0 0 0 0 0 0 0 0 0 0 0 0 0 0 0 0 0 0 0 0 0 0 0 0 0 0 0 0 0 0 0 0 0 0 0 0 0 0 0 0 0
0.21041497803535195 -4.598900763652811 3.7112054039601707 -179.87458017730873 -88.33375607718851 -0.12913278850822285 39.777985319071504 -14.429379614359354 46.094682334659396 -11.627697735402243 68.32192048718788 23.799799966838982 -33.170507382621636 17.507454893196154 -15.859079733138474 0 0 0 -40.88903076450958 -13.426083462144243 -44.22991410565883 9.213125070015634 70.23096544666369 -26.37224552952692 30.651117279151144 15.659591057926562 14.321395170706564 0 0 0 -0.5257309046581459 -22.601841686554472 -2.1706038970649115 0.6849211250876921 8.646413272702718 -0.7897489608399846 0 0 0 22.947278032940755 4.870080807401699 19.074006343890655 52.89131623587682 32.663472521974064 2.629526580493601 2.7726324859478937 30.43487423183173 0.9447556235294474 -1.6454774257399893 -0.9237268377912236 57.98651745301288 0 0 0 0 0 0 0 0 0 0 0 0 0 0 0 0 0 0 0 0 0 0 0 0 0 0 0 0 0 0 0 0 0 0 0 0 0 0 0 0 0 0 0 0 0 0 14.804114594477987 0 0 8.871007723317751 0 0 0 0 0 0 0 0 0 0 -25.245305847740447 4.0024193360798614 -19.739787003969425 -50.45193595533727 32.74969725839665 -2.6671205645471483 -2.6089193505697277 30.46853169855135 -0.311814496729798 1.2800875630756874 -0.748648508860153 -57.99969860984965 0 0 0 0 0 0 0 0 0 0 0 0 0 0 0 0 0 0 0 0 0 0 0 0 0 0 0 0 0 0 0 0 0 0 0 0 0 0 0 0 0 0 0 0 0
0.21041497803535195 -4.590749421980973 3.786269891183597 -179.9104431788359 -87.66610925560323 -0.09327053559458544 40.89672013653677 -16.321903183805865 45.99059492042844 -11.918791398190784 67.99447789532782 23.332130427887744 -33.980018032499856 18.340867754187038 -14.568261961349382 0 0 0 -41.85761888399972 -15.198363326640179 -44.14144599829353 9.768848622093897 69.77791513462846 -25.650570407496964 31.476071721711488 16.60096948928515 13.249691185696399 0 0 0 -0.5295911660933891 -23.602190647597293 -2.1606903702851477 0.6840483943815381 8.146356635921164 -0.7957473104806596 0 0 0 21.577108654816495 5.450443652339316 18.859223918896085 54.21354167619655 32.61086944398907 2.713297879149357 3.106850904525439 30.431721420414906 0.7454706555783175 -1.3368813507801331 -0.8075227003003725 58.664488523904694 0 0 0 0 0 0 0 0 0 0 0 0 0 0 0 0 0 0 0 0 0 0 0 0 0 0 0 0 0 0 0 0 0 0 0 0 0 0 0 0 0 0 0 0 0 0 14.120696947857908 0 0 8.337749224261628 0 0 0 0 0 0 0 0 0 0 -23.62660562440431 4.672332987267844 -19.542248348518925 -52.0630630602074 32.68387970251782 -2.7552401867417258 -2.988382118672467 30.466407955414116 -0.12445726324549222 1.0501173558491077 -0.6160867709994646 -58.760733076439195 0 0 0 0 0 0 0 0 0 0 0 0 0 0 0 0 0 0 0 0 0 0 0 0 0 0 0 0 0 0 0 0 0 0 0 0 0 0 0 0 0 0 0 0 0
0.21041497803535195 -4.582598080309136 3.861334646799295 -179.93094655064826 -86.99834246493782 -0.0727687084290571 42.033966950222 -18.217629078341666 45.84607631863628 -12.198802340361112 67.66614587623376 22.87532442515346 -34.775261689324445 19.193309118744626 -13.280697840864999 0 0 0 -42.84019815945257 -16.973319288030783 -44.0205309070453 10.296772545814571 69.32245953740579 -24.95643277960896 32.28818880807961 17.55883301578825 12.184756991204962 0 0 0 -0.5336762099088536 -24.603152197045983 -2.150618177455293 0.6832297570046941 7.646223630728291 -0.8017316483095344 0 0 0 20.201512576643506 6.026291540743842 18.630015482026252 55.536223818380826 32.55659547780196 2.7956373452385392 3.4411172826321907 30.429574715184142 0.5461473188925092 -1.02683032904556 -0.6949404420747239 59.34330526501116 0 0 0 0 0 0 0 0 0 0 0 0 0 0 0 0 0 0 0 0 0 0 0 0 0 0 0 0 0 0 0 0 0 0 0 0 0 0 0 0 0 0 0 0 0 0 13.435686377764107 0 0 7.803732333511463 0 0 0 0 0 0 0 0 0 0 -22.000892551235477 5.337649867338954 -19.32515230283898 -53.67528890858741 32.61590495875348 -2.841192617550903 -3.3679011431514345 30.465361949695744 0.0629385616340129 0.818319164193638 -0.48654108604220087 -59.52257364293183 0 0 0 0 0 0 0 0 0 0 0 0 0 0 0 0 0 0 0 0 0 0 0 0 0 0 0 0 0 0 0 0 0 0 0 0 0 0 0 0 0 0 0 0 0
